<svg width="24" height="24" viewBox="0 0 24 24" fill="none" xmlns="http://www.w3.org/2000/svg">
<mask id="mask0_2121_1036" style="mask-type:luminance" maskUnits="userSpaceOnUse" x="0" y="5" width="24" height="14">
<path d="M24 5H0V19H24V5Z" fill="white"/>
</mask>
<g mask="url(#mask0_2121_1036)">
<path d="M23.947 8.30735V6.65396C23.947 6.21552 23.7669 5.79501 23.4463 5.48485C23.1257 5.17468 22.6909 5.00024 22.2373 4.99985H18.8195C18.7727 4.99985 18.7266 4.99985 18.6805 5.00643H12.1125C12.0664 5.00643 12.021 4.99985 11.9742 4.99985C11.5235 4.99983 11.091 5.17184 10.7709 5.47846C10.4507 5.78509 10.2687 6.20151 10.2645 6.63716C10.2645 6.64081 10.2645 6.64447 10.2645 6.64739C10.2645 6.65031 10.2645 6.65177 10.2645 6.65396V10.2917H3.42144V6.65396C3.42623 6.43387 3.38552 6.21506 3.30169 6.01037C3.21787 5.80568 3.09262 5.61922 2.93328 5.46192C2.77395 5.30463 2.58373 5.17966 2.37379 5.09435C2.16385 5.00903 1.93841 4.96509 1.71067 4.96509C1.48293 4.96509 1.25748 5.00903 1.04754 5.09435C0.837598 5.17966 0.647383 5.30463 0.488049 5.46192C0.328715 5.61922 0.203465 5.80568 0.11964 6.01037C0.035816 6.21506 -0.00489637 6.43387 -0.000110349 6.65396V17.2362C0.00929611 17.6688 0.19367 18.0806 0.513479 18.3833C0.833289 18.686 1.26307 18.8555 1.71067 18.8555C2.15827 18.8555 2.58804 18.686 2.90785 18.3833C3.22766 18.0806 3.41204 17.6688 3.42144 17.2362V13.5985H10.263V17.2355C10.2635 17.3088 10.2691 17.382 10.2797 17.4546C10.2797 17.4722 10.2849 17.4904 10.2887 17.508C10.3001 17.5774 10.3163 17.646 10.3371 17.7133C10.3367 17.7147 10.3367 17.7162 10.3371 17.7177C10.3598 17.7878 10.3874 17.8564 10.4195 17.923C10.4248 17.9339 10.4308 17.9456 10.4369 17.9566C10.4687 18.0211 10.5048 18.0836 10.545 18.1436C10.5881 18.207 10.6358 18.2673 10.6878 18.3241L10.7172 18.3548C10.7693 18.4118 10.8248 18.4657 10.8835 18.5162C10.9517 18.5701 11.024 18.6189 11.0997 18.6624L11.133 18.6821C11.2058 18.7219 11.2816 18.7563 11.3597 18.7851C11.3743 18.7912 11.3891 18.7966 11.4043 18.8012C11.4853 18.8293 11.5684 18.8511 11.653 18.8662L11.6923 18.872C11.7837 18.8869 11.8762 18.8947 11.9689 18.8954C12.1413 18.8959 12.3128 18.8713 12.4775 18.8224C12.4919 18.818 12.5055 18.8121 12.5199 18.807C12.6109 18.7776 12.6992 18.7407 12.7836 18.6967C12.8018 18.6879 12.8177 18.677 12.8343 18.6675C13.0915 18.5219 13.3048 18.3138 13.453 18.0639C13.6013 17.8139 13.6793 17.5309 13.6793 17.2428C13.6793 17.2347 13.6793 17.2267 13.6793 17.2179V13.5977H20.5277V17.2303C20.5277 17.2303 20.5277 17.2303 20.5277 17.2362C20.5275 17.56 20.626 17.8767 20.8111 18.1465C21.0135 18.4435 21.3095 18.6694 21.6553 18.7908C22.001 18.9122 22.378 18.9225 22.7303 18.8203C23.0827 18.7181 23.3915 18.5087 23.6109 18.2233C23.8304 17.938 23.9488 17.5918 23.9485 17.2362C23.9485 17.2282 23.9485 17.2201 23.9485 17.2113L23.947 8.30735ZM20.5277 10.2924H13.6846V8.31246H20.5277V10.2924Z" fill="#22222E"/>
</g>
</svg>
