<svg width="170" height="30" viewBox="0 0 170 30" fill="none" xmlns="http://www.w3.org/2000/svg">
<mask id="mask0_2119_434" style="mask-type:luminance" maskUnits="userSpaceOnUse" x="0" y="1" width="46" height="28">
<path d="M46 1H0V29H46V1Z" fill="white"/>
</mask>
<g mask="url(#mask0_2119_434)">
<path d="M45.8984 7.61518V4.30841C45.8984 3.43152 45.5532 2.59051 44.9388 1.97018C44.3243 1.34985 43.4909 1.00096 42.6215 1.00018H36.0708C35.981 1.00018 35.8926 1.00018 35.8043 1.01334H23.2156C23.1273 1.01334 23.0403 1.00018 22.9505 1.00018C22.0867 1.00015 21.2578 1.34417 20.6442 1.95741C20.0305 2.57066 19.6817 3.40351 19.6737 4.27481C19.6737 4.28211 19.6737 4.28942 19.6737 4.29526C19.6737 4.30111 19.6737 4.30403 19.6737 4.30841V11.5839H6.55773V4.30841C6.5669 3.86822 6.48887 3.4306 6.3282 3.02122C6.16754 2.61184 5.92748 2.23892 5.62209 1.92433C5.3167 1.60974 4.95212 1.35981 4.54973 1.18918C4.14734 1.01855 3.71524 0.930664 3.27874 0.930664C2.84224 0.930664 2.41013 1.01855 2.00774 1.18918C1.60536 1.35981 1.24078 1.60974 0.935387 1.92433C0.629996 2.23892 0.389934 2.61184 0.22927 3.02122C0.0686067 3.4306 -0.00942539 3.86822 -0.000252193 4.30841V25.4729C0.0177769 26.3381 0.371161 27.1617 0.984127 27.7671C1.5971 28.3726 2.42084 28.7116 3.27874 28.7116C4.13664 28.7116 4.96038 28.3726 5.57335 27.7671C6.18631 27.1617 6.5397 26.3381 6.55773 25.4729V18.1975H19.6708V25.4715C19.6718 25.6181 19.6825 25.7646 19.7027 25.9098C19.7027 25.9449 19.7128 25.9814 19.7201 26.0165C19.7419 26.1553 19.7729 26.2925 19.8128 26.4271C19.8121 26.43 19.8121 26.433 19.8128 26.4359C19.8563 26.5761 19.9091 26.7133 19.9707 26.8465C19.9808 26.8684 19.9924 26.8918 20.004 26.9137C20.0651 27.0427 20.1343 27.1677 20.2112 27.2878C20.2938 27.4145 20.3853 27.5351 20.4849 27.6487L20.5414 27.7101C20.6412 27.8241 20.7476 27.9319 20.8601 28.033C20.9908 28.1407 21.1293 28.2384 21.2745 28.3253L21.3382 28.3647C21.4777 28.4443 21.623 28.5132 21.7728 28.5707C21.8007 28.583 21.8292 28.5937 21.8583 28.6029C22.0134 28.6592 22.1728 28.7027 22.3349 28.7329L22.4102 28.7446C22.5854 28.7743 22.7627 28.79 22.9404 28.7914C23.2708 28.7924 23.5995 28.7431 23.9153 28.6453C23.9428 28.6365 23.9689 28.6248 23.9964 28.6146C24.1709 28.5558 24.3401 28.482 24.502 28.3939C24.5368 28.3764 24.5672 28.3545 24.5991 28.3355C25.092 28.0443 25.5008 27.6281 25.785 27.1283C26.0691 26.6284 26.2186 26.0623 26.2186 25.4861C26.2186 25.47 26.2186 25.4539 26.2186 25.4364V18.196H39.3447V25.4612C39.3447 25.4612 39.3447 25.4612 39.3447 25.4729C39.3443 26.1205 39.5332 26.7539 39.888 27.2936C40.2758 27.8875 40.8432 28.3394 41.5059 28.5822C42.1686 28.8249 42.8912 28.8456 43.5665 28.6411C44.2418 28.4367 44.8337 28.018 45.2543 27.4472C45.6749 26.8765 45.9018 26.1841 45.9013 25.4729C45.9013 25.4569 45.9013 25.4408 45.9013 25.4232L45.8984 7.61518ZM39.3447 11.5854H26.2288V7.62541H39.3447V11.5854Z" fill="white"/>
</g>
<path d="M62.9703 3.93632V12.7061H61.3416V8.94765H56.8063V12.7061H55.1777V3.93632H56.8063V7.55701H61.3416V3.93632H62.9703ZM70.9454 10.6765H66.5605L65.6961 12.7061H64.0173L67.9637 3.93632H69.5673L73.5262 12.7061H71.8224L70.9454 10.6765ZM70.4067 9.39867L68.753 5.565L67.1118 9.39867H70.4067ZM80.3169 12.7061L78.5253 10.1378C78.4502 10.1461 78.3374 10.1503 78.1871 10.1503H76.2076V12.7061H74.5789V3.93632H78.1871C78.9471 3.93632 79.6069 4.06161 80.1665 4.31217C80.7345 4.56274 81.1688 4.92188 81.4695 5.38961C81.7702 5.85733 81.9205 6.41275 81.9205 7.05587C81.9205 7.7157 81.7576 8.28365 81.4319 8.75972C81.1145 9.2358 80.6551 9.59077 80.0538 9.82463L82.0708 12.7061H80.3169ZM80.2793 7.05587C80.2793 6.49628 80.0955 6.06614 79.728 5.76546C79.3606 5.46478 78.8218 5.31444 78.1119 5.31444H76.2076V8.80984H78.1119C78.8218 8.80984 79.3606 8.6595 79.728 8.35882C80.0955 8.04979 80.2793 7.61547 80.2793 7.05587ZM89.418 12.7061L87.6265 10.1378C87.5513 10.1461 87.4385 10.1503 87.2882 10.1503H85.3087V12.7061H83.68V3.93632H87.2882C88.0482 3.93632 88.7081 4.06161 89.2677 4.31217C89.8356 4.56274 90.2699 4.92188 90.5706 5.38961C90.8713 5.85733 91.0216 6.41275 91.0216 7.05587C91.0216 7.7157 90.8588 8.28365 90.533 8.75972C90.2156 9.2358 89.7563 9.59077 89.1549 9.82463L91.172 12.7061H89.418ZM89.3804 7.05587C89.3804 6.49628 89.1967 6.06614 88.8292 5.76546C88.4617 5.46478 87.923 5.31444 87.213 5.31444H85.3087V8.80984H87.213C87.923 8.80984 88.4617 8.6595 88.8292 8.35882C89.1967 8.04979 89.3804 7.61547 89.3804 7.05587ZM92.7812 3.93632H94.4099V12.7061H92.7812V3.93632ZM99.4379 12.8314C98.7614 12.8314 98.1057 12.7353 97.471 12.5432C96.8446 12.3511 96.3476 12.0964 95.9801 11.779L96.5439 10.5136C96.903 10.7976 97.3415 11.0315 97.8593 11.2152C98.3855 11.3906 98.9117 11.4783 99.4379 11.4783C100.089 11.4783 100.574 11.3739 100.891 11.1651C101.217 10.9563 101.38 10.6807 101.38 10.3382C101.38 10.0877 101.288 9.88308 101.104 9.72439C100.929 9.55735 100.703 9.42789 100.428 9.33601C100.152 9.24414 99.7762 9.13974 99.3001 9.02281C98.6319 8.86412 98.089 8.70542 97.6714 8.54673C97.2622 8.38804 96.9072 8.14166 96.6065 7.80757C96.3142 7.46513 96.168 7.00576 96.168 6.42946C96.168 5.94503 96.2975 5.50654 96.5564 5.11399C96.8237 4.71308 97.2204 4.3957 97.7466 4.16183C98.2811 3.92797 98.9326 3.81104 99.701 3.81104C100.236 3.81104 100.762 3.87786 101.28 4.0115C101.797 4.14513 102.244 4.33723 102.62 4.5878L102.106 5.85316C101.722 5.62765 101.321 5.45643 100.904 5.3395C100.486 5.22256 100.081 5.1641 99.6885 5.1641C99.0454 5.1641 98.5651 5.27268 98.2477 5.48983C97.9387 5.70699 97.7842 5.99514 97.7842 6.35429C97.7842 6.60485 97.8719 6.80948 98.0473 6.96817C98.231 7.12687 98.4607 7.25215 98.7363 7.34402C99.0119 7.4359 99.3878 7.5403 99.8639 7.65723C100.515 7.80757 101.05 7.96625 101.467 8.1333C101.885 8.29199 102.24 8.53838 102.532 8.87247C102.833 9.20656 102.983 9.65758 102.983 10.2255C102.983 10.7099 102.85 11.1484 102.583 11.541C102.324 11.9335 101.927 12.2467 101.392 12.4806C100.858 12.7145 100.206 12.8314 99.4379 12.8314ZM108.633 12.8314C107.739 12.8314 106.933 12.6393 106.215 12.2551C105.496 11.8625 104.932 11.3238 104.523 10.6389C104.114 9.94574 103.909 9.17316 103.909 8.32123C103.909 7.46931 104.114 6.7009 104.523 6.01602C104.932 5.32279 105.496 4.78407 106.215 4.39987C106.933 4.00732 107.739 3.81104 108.633 3.81104C109.526 3.81104 110.332 4.00732 111.05 4.39987C111.769 4.78407 112.333 5.31861 112.742 6.0035C113.151 6.68838 113.356 7.46095 113.356 8.32123C113.356 9.18151 113.151 9.95409 112.742 10.6389C112.333 11.3238 111.769 11.8625 111.05 12.2551C110.332 12.6393 109.526 12.8314 108.633 12.8314ZM108.633 11.4032C109.217 11.4032 109.743 11.2737 110.211 11.0148C110.679 10.7475 111.046 10.38 111.314 9.91232C111.581 9.43624 111.714 8.90589 111.714 8.32123C111.714 7.73658 111.581 7.21039 111.314 6.74267C111.046 6.26659 110.679 5.89909 110.211 5.64017C109.743 5.3729 109.217 5.23927 108.633 5.23927C108.048 5.23927 107.522 5.3729 107.054 5.64017C106.586 5.89909 106.219 6.26659 105.951 6.74267C105.684 7.21039 105.551 7.73658 105.551 8.32123C105.551 8.90589 105.684 9.43624 105.951 9.91232C106.219 10.38 106.586 10.7475 107.054 11.0148C107.522 11.2737 108.048 11.4032 108.633 11.4032ZM122.812 3.93632V12.7061H121.471L116.636 6.76772V12.7061H115.019V3.93632H116.36L121.196 9.87473V3.93632H122.812ZM134.187 10.6765H129.802L128.938 12.7061H127.259L131.205 3.93632H132.809L136.768 12.7061H135.064L134.187 10.6765ZM133.648 9.39867L131.994 5.565L130.353 9.39867H133.648ZM143.558 12.7061L141.767 10.1378C141.692 10.1461 141.579 10.1503 141.429 10.1503H139.449V12.7061H137.82V3.93632H141.429C142.189 3.93632 142.848 4.06161 143.408 4.31217C143.976 4.56274 144.41 4.92188 144.711 5.38961C145.012 5.85733 145.162 6.41275 145.162 7.05587C145.162 7.7157 144.999 8.28365 144.673 8.75972C144.356 9.2358 143.897 9.59077 143.295 9.82463L145.312 12.7061H143.558ZM143.521 7.05587C143.521 6.49628 143.337 6.06614 142.97 5.76546C142.602 5.46478 142.063 5.31444 141.353 5.31444H139.449V8.80984H141.353C142.063 8.80984 142.602 8.6595 142.97 8.35882C143.337 8.04979 143.521 7.61547 143.521 7.05587ZM146.922 3.93632H148.55V12.7061H146.922V3.93632ZM156.548 10.6765H152.163L151.298 12.7061H149.619L153.566 3.93632H155.169L159.128 12.7061H157.424L156.548 10.6765ZM156.009 9.39867L154.355 5.565L152.714 9.39867H156.009ZM162.9 12.8314C162.223 12.8314 161.567 12.7353 160.933 12.5432C160.306 12.3511 159.809 12.0964 159.442 11.779L160.006 10.5136C160.365 10.7976 160.803 11.0315 161.321 11.2152C161.847 11.3906 162.373 11.4783 162.9 11.4783C163.551 11.4783 164.036 11.3739 164.353 11.1651C164.679 10.9563 164.842 10.6807 164.842 10.3382C164.842 10.0877 164.75 9.88308 164.566 9.72439C164.391 9.55735 164.165 9.42789 163.889 9.33601C163.614 9.24414 163.238 9.13974 162.762 9.02281C162.094 8.86412 161.551 8.70542 161.133 8.54673C160.724 8.38804 160.369 8.14166 160.068 7.80757C159.776 7.46513 159.63 7.00576 159.63 6.42946C159.63 5.94503 159.759 5.50654 160.018 5.11399C160.285 4.71308 160.682 4.3957 161.208 4.16183C161.743 3.92797 162.394 3.81104 163.163 3.81104C163.697 3.81104 164.223 3.87786 164.741 4.0115C165.259 4.14513 165.706 4.33723 166.082 4.5878L165.568 5.85316C165.184 5.62765 164.783 5.45643 164.365 5.3395C163.948 5.22256 163.543 5.1641 163.15 5.1641C162.507 5.1641 162.027 5.27268 161.709 5.48983C161.4 5.70699 161.246 5.99514 161.246 6.35429C161.246 6.60485 161.334 6.80948 161.509 6.96817C161.693 7.12687 161.922 7.25215 162.198 7.34402C162.474 7.4359 162.85 7.5403 163.326 7.65723C163.977 7.80757 164.512 7.96625 164.929 8.1333C165.347 8.29199 165.702 8.53838 165.994 8.87247C166.295 9.20656 166.445 9.65758 166.445 10.2255C166.445 10.7099 166.312 11.1484 166.044 11.541C165.785 11.9335 165.389 12.2467 164.854 12.4806C164.32 12.7145 163.668 12.8314 162.9 12.8314Z" fill="white"/>
<path d="M56.923 21.2309C58.0101 21.2309 58.8456 21.4968 59.4297 22.0288C60.0137 22.555 60.3057 23.2894 60.3057 24.2319C60.3057 25.1745 60.0224 25.9205 59.4557 26.4699C58.889 27.0192 58.0216 27.2938 56.8536 27.2938H54.8413V21.2309H56.923ZM59.2736 24.2579C59.2736 22.8701 58.4785 22.1763 56.8883 22.1763H55.8648V26.331H57.001C57.7354 26.331 58.2963 26.1575 58.6837 25.8105C59.0769 25.4578 59.2736 24.9403 59.2736 24.2579ZM63.4563 27.2938H62.4848V22.6793H63.4563V27.2938ZM62.5455 21.7599C62.4241 21.6385 62.3634 21.494 62.3634 21.3263C62.3634 21.1586 62.4241 21.014 62.5455 20.8925C62.667 20.7711 62.8115 20.7104 62.9792 20.7104C63.1469 20.7104 63.2915 20.7711 63.4129 20.8925C63.5343 21.014 63.5951 21.1586 63.5951 21.3263C63.5951 21.494 63.5343 21.6385 63.4129 21.7599C63.2915 21.8813 63.1469 21.942 62.9792 21.942C62.8115 21.942 62.667 21.8813 62.5455 21.7599ZM69.1499 25.9146C69.1499 26.3541 68.9908 26.7068 68.6728 26.9728C68.3548 27.233 67.9471 27.3632 67.4498 27.3632C67.1144 27.3632 66.7646 27.3024 66.4003 27.181C66.0418 27.0596 65.7237 26.889 65.4462 26.6693L65.9145 25.9146C66.4523 26.3194 66.9727 26.5218 67.4758 26.5218C67.6956 26.5218 67.869 26.4726 67.9962 26.3743C68.1235 26.2703 68.1871 26.1402 68.1871 25.984C68.1871 25.7527 67.8806 25.5447 67.2676 25.3596C67.2214 25.3423 67.1867 25.3307 67.1636 25.3249C66.2037 25.0647 65.7237 24.6309 65.7237 24.0238C65.7237 23.5958 65.8885 23.2547 66.2181 23.0002C66.5535 22.74 66.9872 22.6099 67.5192 22.6099C68.0512 22.6099 68.5543 22.7662 69.0284 23.0784L68.6641 23.7983C68.2883 23.5497 67.8806 23.4254 67.4411 23.4254C67.2098 23.4254 67.0219 23.4687 66.8773 23.5555C66.7328 23.6364 66.6605 23.7607 66.6605 23.9284C66.6605 24.0788 66.7357 24.1886 66.886 24.2579C66.9901 24.31 67.1346 24.3591 67.3197 24.4054C67.5105 24.4517 67.6782 24.498 67.8228 24.5443C67.9673 24.5905 68.1061 24.6425 68.2391 24.7003C68.3779 24.7581 68.5253 24.8391 68.6815 24.9432C68.9937 25.1513 69.1499 25.4752 69.1499 25.9146ZM75.5412 25.4116H71.9242C71.9474 25.7469 72.1006 26.0187 72.3839 26.2269C72.6673 26.4293 72.9911 26.5306 73.3554 26.5306C73.9337 26.5306 74.3731 26.3483 74.6738 25.984L75.2289 26.5912C74.7316 27.1058 74.084 27.3632 73.286 27.3632C72.6384 27.3632 72.0861 27.1492 71.6293 26.7213C71.1783 26.2876 70.9528 25.7094 70.9528 24.9865C70.9528 24.2579 71.1841 23.6798 71.6467 23.2519C72.1093 22.824 72.6528 22.6099 73.2773 22.6099C73.9076 22.6099 74.4425 22.8008 74.882 23.1824C75.3215 23.5583 75.5412 24.0787 75.5412 24.7437V25.4116ZM71.9242 24.6483H74.5697C74.5697 24.2608 74.4483 23.963 74.2054 23.7549C73.9626 23.5467 73.6619 23.4426 73.3034 23.4426C72.9506 23.4426 72.6326 23.5525 72.3493 23.7722C72.0659 23.9862 71.9242 24.2782 71.9242 24.6483ZM78.5784 24.7957V27.2938H77.607V22.6793H78.5784V23.5208C78.7346 23.2374 78.9485 23.0147 79.2203 22.8528C79.4979 22.6909 79.7957 22.6099 80.1137 22.6099C80.6341 22.6099 81.0534 22.7689 81.3714 23.087C81.6952 23.405 81.8571 23.8648 81.8571 24.4662V27.2938H80.8857V24.761C80.8857 23.911 80.5329 23.486 79.8275 23.486C79.4921 23.486 79.2001 23.5988 78.9514 23.8244C78.7028 24.0441 78.5784 24.3678 78.5784 24.7957ZM80.4173 22.1155C80.2669 22.1155 80.0559 22.049 79.7841 21.916C79.5181 21.7772 79.3475 21.7079 79.2723 21.7079C79.0815 21.7079 78.9832 21.8352 78.9774 22.0896H78.3356C78.3356 21.7542 78.4021 21.4824 78.5351 21.2743C78.6739 21.0661 78.8647 20.962 79.1075 20.962C79.2637 20.962 79.4805 21.0313 79.7581 21.1701C80.0356 21.3031 80.2178 21.3696 80.3045 21.3696C80.478 21.3696 80.5647 21.2424 80.5647 20.9879H81.2153C81.1979 21.7397 80.9319 22.1155 80.4173 22.1155ZM87.9503 27.2938H87.0656V26.6779C86.6839 27.1347 86.1722 27.3632 85.5303 27.3632C85.0504 27.3632 84.6514 27.2273 84.3334 26.9555C84.0211 26.6837 83.865 26.3223 83.865 25.8713C83.865 25.4144 84.0327 25.0733 84.368 24.8478C84.7034 24.6222 85.1574 24.5096 85.7298 24.5096H86.9875V24.3361C86.9875 23.7232 86.6464 23.4166 85.964 23.4166C85.5361 23.4166 85.0909 23.5727 84.6283 23.885L84.1946 23.2778C84.7555 22.8326 85.3916 22.6099 86.1028 22.6099C86.6464 22.6099 87.0887 22.7488 87.4299 23.0264C87.7768 23.2981 87.9503 23.7289 87.9503 24.3188V27.2938ZM86.9789 25.5765V25.1861H85.886C85.1863 25.1861 84.8364 25.4058 84.8364 25.8452C84.8364 26.0708 84.9232 26.2442 85.0966 26.3657C85.2701 26.4813 85.5101 26.5392 85.8166 26.5392C86.1288 26.5392 86.4006 26.4524 86.6319 26.2789C86.8632 26.1055 86.9789 25.8714 86.9789 25.5765ZM92.1824 27.3632C91.5983 27.3632 91.0895 27.1434 90.6558 26.7039C90.2221 26.2645 90.0053 25.6862 90.0053 24.9692C90.0053 24.2522 90.2279 23.6798 90.6731 23.2519C91.1184 22.824 91.6475 22.6099 92.2604 22.6099C92.8792 22.6099 93.3765 22.8701 93.7523 23.3906V20.8578H94.7238V27.2938H93.7523V26.5999C93.3938 27.1087 92.8705 27.3632 92.1824 27.3632ZM90.9767 25.0126C90.9767 25.452 91.1184 25.8106 91.4017 26.0882C91.6851 26.3658 92.0176 26.5044 92.3992 26.5044C92.7809 26.5044 93.1047 26.3658 93.3707 26.0882C93.6367 25.8049 93.7697 25.4435 93.7697 25.004C93.7697 24.5645 93.6367 24.1972 93.3707 23.9023C93.1047 23.6074 92.778 23.46 92.3905 23.46C92.0031 23.46 91.6706 23.6074 91.3931 23.9023C91.1155 24.1972 90.9767 24.5673 90.9767 25.0126ZM98.2009 26.0794C98.4784 26.357 98.8283 26.4958 99.2504 26.4958C99.6725 26.4958 100.02 26.357 100.291 26.0794C100.569 25.7961 100.708 25.4318 100.708 24.9865C100.708 24.5413 100.569 24.1799 100.291 23.9023C100.02 23.619 99.6725 23.4774 99.2504 23.4774C98.8283 23.4774 98.4784 23.619 98.2009 23.9023C97.9291 24.1799 97.7932 24.5413 97.7932 24.9865C97.7932 25.4318 97.9291 25.7961 98.2009 26.0794ZM100.985 26.6779C100.523 27.1347 99.9443 27.3632 99.2504 27.3632C98.5565 27.3632 97.9782 27.1347 97.5156 26.6779C97.053 26.2153 96.8217 25.6515 96.8217 24.9865C96.8217 24.3216 97.053 23.7607 97.5156 23.3039C97.9782 22.8413 98.5565 22.6099 99.2504 22.6099C99.9443 22.6099 100.523 22.8413 100.985 23.3039C101.448 23.7607 101.679 24.3216 101.679 24.9865C101.679 25.6515 101.448 26.2153 100.985 26.6779ZM106.201 23.5901C105.721 23.5901 105.36 23.7462 105.117 24.0584C104.874 24.3707 104.753 24.7899 104.753 25.3161V27.2938H103.781V22.6793H104.753V23.6075C104.909 23.3184 105.12 23.0812 105.386 22.8962C105.658 22.7111 105.944 22.6157 106.245 22.6099L106.253 23.5901C106.236 23.5901 106.219 23.5901 106.201 23.5901ZM113.634 25.5938L114.987 21.2309H115.906L117.259 25.5938L118.786 21.2309H119.887L117.771 27.2938H116.756L115.481 23.139H115.412L114.137 27.2938H113.122L111.005 21.2309H112.107L113.634 25.5938ZM125.984 25.4116H122.367C122.39 25.7469 122.543 26.0187 122.826 26.2269C123.11 26.4293 123.434 26.5306 123.798 26.5306C124.376 26.5306 124.816 26.3483 125.116 25.984L125.671 26.5912C125.174 27.1058 124.526 27.3632 123.728 27.3632C123.081 27.3632 122.529 27.1492 122.072 26.7213C121.621 26.2876 121.395 25.7094 121.395 24.9865C121.395 24.2579 121.627 23.6798 122.089 23.2519C122.552 22.824 123.095 22.6099 123.72 22.6099C124.35 22.6099 124.885 22.8008 125.324 23.1824C125.764 23.5583 125.984 24.0787 125.984 24.7437V25.4116ZM122.367 24.6483H125.012C125.012 24.2608 124.891 23.963 124.648 23.7549C124.405 23.5467 124.104 23.4426 123.746 23.4426C123.393 23.4426 123.075 23.5525 122.792 23.7722C122.508 23.9862 122.367 24.2782 122.367 24.6483ZM130.521 22.6099C131.14 22.6099 131.669 22.824 132.109 23.2519C132.548 23.6798 132.768 24.2494 132.768 24.9606C132.768 25.6719 132.548 26.25 132.109 26.6953C131.675 27.1405 131.166 27.3632 130.582 27.3632C130.004 27.3632 129.484 27.1087 129.021 26.5999V27.2938H128.049V20.8578H129.021V23.486C129.403 22.9019 129.903 22.6099 130.521 22.6099ZM129.004 24.9952C129.004 25.4347 129.137 25.7961 129.403 26.0794C129.669 26.357 129.992 26.4958 130.374 26.4958C130.756 26.4958 131.088 26.357 131.371 26.0794C131.655 25.8019 131.797 25.4435 131.797 25.004C131.797 24.5587 131.658 24.1914 131.38 23.9023C131.103 23.6074 130.77 23.46 130.383 23.46C129.995 23.46 129.669 23.6074 129.403 23.9023C129.137 24.1914 129.004 24.5557 129.004 24.9952ZM139.753 25.906C140.03 26.2298 140.406 26.3918 140.88 26.3918C141.355 26.3918 141.73 26.2298 142.008 25.906C142.286 25.5821 142.424 25.1427 142.424 24.5875V21.2309H143.448V24.6309C143.448 25.5041 143.208 26.1777 142.728 26.6519C142.248 27.1203 141.632 27.3545 140.88 27.3545C140.129 27.3545 139.513 27.1203 139.033 26.6519C138.553 26.1777 138.313 25.5041 138.313 24.6309V21.2309H139.337V24.5875C139.337 25.1427 139.475 25.5821 139.753 25.906ZM149.637 27.2938L148.145 25.0126H148.102L146.61 27.2938H145.335L147.417 24.1799L145.483 21.2309H146.749L148.102 23.2778H148.145L149.499 21.2309H150.765L148.831 24.1799L150.912 27.2938H149.637ZM157.619 25.906C157.897 26.2298 158.273 26.3918 158.747 26.3918C159.221 26.3918 159.597 26.2298 159.875 25.906C160.152 25.5821 160.291 25.1427 160.291 24.5875V21.2309H161.314V24.6309C161.314 25.5041 161.075 26.1777 160.595 26.6519C160.115 27.1203 159.499 27.3545 158.747 27.3545C157.995 27.3545 157.379 27.1203 156.9 26.6519C156.42 26.1777 156.18 25.5041 156.18 24.6309V21.2309H157.203V24.5875C157.203 25.1427 157.342 25.5821 157.619 25.906ZM163.913 21.2309H164.936V27.2938H163.913V21.2309Z" fill="white"/>
</svg>
