<svg width="993" height="284" viewBox="0 0 993 284" fill="none" xmlns="http://www.w3.org/2000/svg">
<path d="M99.8219 283.2C80.0885 283.2 62.7552 279.067 47.8219 270.8C32.8885 262.267 21.2885 250.4 13.0219 235.2C4.75521 220 0.621876 202.4 0.621876 182.4V-1.90735e-05H55.8219V180.8C55.8219 196.8 59.8219 209.733 67.8219 219.6C76.0885 229.467 86.7552 234.4 99.8219 234.4H142.222C155.555 234.4 166.355 229.467 174.622 219.6C182.889 209.733 187.022 196.8 187.022 180.8V-1.90735e-05H242.222V182.4C242.222 202.4 238.089 220 229.822 235.2C221.555 250.4 209.822 262.267 194.622 270.8C179.422 279.067 161.955 283.2 142.222 283.2H99.8219ZM358.113 137.2L264.513 -1.90735e-05H327.313L389.713 92L452.113 -1.90735e-05H514.513L420.913 137.2L518.513 280H455.713L389.713 182.4L323.313 280H260.512L358.113 137.2ZM747.197 283.2C727.464 283.2 710.13 279.067 695.197 270.8C680.264 262.267 668.664 250.4 660.397 235.2C652.13 220 647.997 202.4 647.997 182.4V-1.90735e-05H703.197V180.8C703.197 196.8 707.197 209.733 715.197 219.6C723.464 229.467 734.13 234.4 747.197 234.4H789.597C802.93 234.4 813.73 229.467 821.997 219.6C830.264 209.733 834.397 196.8 834.397 180.8V-1.90735e-05H889.597V182.4C889.597 202.4 885.464 220 877.197 235.2C868.93 250.4 857.197 262.267 841.997 270.8C826.797 279.067 809.33 283.2 789.597 283.2H747.197ZM937.488 -1.90735e-05H992.688V280H937.488V-1.90735e-05Z" fill="#272733"/>
</svg>
